<svg width="95" height="90" viewBox="0 0 95 90" fill="none" xmlns="http://www.w3.org/2000/svg">
<path d="M36.615 35.0285C11.3424 40.3205 -0.0679614 46.0804 0.000304431 46.3066C0.0813701 46.5654 16.313 41.5592 27.4403 43.8433C27.5584 43.8206 55.0752 35.9529 68.6957 32.0475C62.9201 33.848 56.8459 35.9302 50.5355 38.3465C44.2778 40.7415 38.4127 43.2247 32.95 45.7206C32.8988 45.7548 32.8433 45.7875 32.7907 45.8216C34.3819 46.7349 35.7408 48.0032 36.7615 49.5279C39.5974 53.8357 38.6103 58.8774 38.2263 60.513C50.151 47.5885 64.349 36.965 80.1131 29.1718C65.4908 30.0656 50.953 32.023 36.615 35.0285Z" fill="white"/>
<path d="M49.1262 55.5324C58.7317 61.527 70.6726 61.9139 80.0279 56.4113C91.8194 49.4781 93.7194 36.5958 93.9413 34.882C94.0608 33.9661 95.483 21.4806 86.7648 11.3032C77.5774 0.569862 60.6361 -3.48911 46.7824 3.39436C35.1658 9.16567 27.9069 21.5474 28.1828 35.0285L36.6762 33.2706C36.3716 30.061 36.7205 26.8229 37.7016 23.7518C38.4326 21.4848 41.0893 14.4435 48.5402 10.4243C55.4536 6.69388 62.1507 7.90986 64.5045 8.3735C66.3277 8.73332 78.6768 11.3786 83.2506 22.8729C87.0706 32.4699 83.1994 42.5249 77.6855 48.4982C70.6996 56.0828 59.5296 58.8078 49.1262 55.5324Z" fill="white"/>
<path d="M76.7226 22.1604L49.6837 9.37473C47.3551 10.5786 45.2408 12.158 43.426 14.0495L76.7226 22.1604Z" fill="white"/>
<path d="M73.9991 23.8613L39.6941 18.3787C39.3315 19.0216 38.9631 19.7398 38.6118 20.5319C38.2109 21.4339 37.8656 22.3596 37.5779 23.3038L73.9991 23.8613Z" fill="white"/>
<path d="M70.6313 26.7072L36.7046 27.9032C36.457 28.6378 36.3162 29.4042 36.2865 30.1788C36.2809 31.2201 36.4119 32.2577 36.6762 33.265C48.0211 31.2639 59.2864 28.7139 70.6313 26.7072Z" fill="white"/>
<path d="M46.8073 76.9H50.4673V79H43.9673V66.28H46.8073V76.9ZM53.8692 68.88V70.38H51.0292V68.48C51.0292 67.0133 51.8692 66.28 53.5492 66.28H55.7692C57.4625 66.28 58.3092 67.0133 58.3092 68.48V70.66C58.3092 71.6467 58.0092 72.2667 57.4092 72.52C58.0092 72.7467 58.3092 73.32 58.3092 74.24V76.78C58.3092 78.26 57.4625 79 55.7692 79H53.5492C51.8692 79 51.0292 78.26 51.0292 76.78V74.92H53.8692V76.4C53.8692 76.7333 54.0492 76.9 54.4092 76.9H54.9492C55.3092 76.9 55.4892 76.7333 55.4892 76.4V74.04C55.4892 73.8533 55.4492 73.7267 55.3692 73.66C55.2892 73.58 55.1492 73.54 54.9492 73.54H53.3892V71.56H54.9492C55.1492 71.56 55.2892 71.5267 55.3692 71.46C55.4492 71.38 55.4892 71.2533 55.4892 71.08V68.88C55.4892 68.5467 55.3092 68.38 54.9492 68.38H54.4092C54.0492 68.38 53.8692 68.5467 53.8692 68.88ZM65.8025 79L65.3625 76.7H62.4625L62.0225 79H59.2025L62.0825 66.28H65.7225L68.6825 79H65.8025ZM62.8625 74.62H64.9425L63.9025 69.24L62.8625 74.62ZM69.5104 66.28H72.4304V67.88L70.3304 72.16H69.5104V66.28ZM78.485 76.4V74.1C78.485 73.9267 78.445 73.8067 78.365 73.74C78.285 73.66 78.145 73.62 77.945 73.62H76.185C74.6116 73.62 73.825 72.8733 73.825 71.38V68.48C73.825 67.0133 74.665 66.28 76.345 66.28H78.785C80.465 66.28 81.305 67.0133 81.305 68.48V70.14H78.445V68.88C78.445 68.5467 78.265 68.38 77.905 68.38H77.225C76.865 68.38 76.685 68.5467 76.685 68.88V71.12C76.685 71.2933 76.725 71.42 76.805 71.5C76.885 71.5667 77.025 71.6 77.225 71.6H78.945C79.7983 71.6 80.4116 71.7867 80.785 72.16C81.1583 72.52 81.345 73.06 81.345 73.78V76.78C81.345 78.26 80.505 79 78.825 79H76.405C74.7116 79 73.865 78.26 73.865 76.78V75.14H76.725V76.4C76.725 76.7333 76.905 76.9 77.265 76.9H77.945C78.305 76.9 78.485 76.7333 78.485 76.4Z" fill="white"/>
<path d="M43.3046 82.47H41.4846V84.53H42.9246V85.24H41.4846V88H40.5746V81.74H43.3046V82.47ZM45.5049 83.11H45.7049V83.89H45.3449C44.9249 83.89 44.7149 84.1367 44.7149 84.63V88H43.8149V83.12H44.7149V83.72C44.7683 83.5467 44.8616 83.4033 44.9949 83.29C45.1349 83.17 45.3049 83.11 45.5049 83.11ZM47.1078 83.12H48.0878C48.7144 83.12 49.0278 83.4167 49.0278 84.01V85.84H47.0578V87C47.0578 87.1133 47.0778 87.19 47.1178 87.23C47.1578 87.27 47.2378 87.29 47.3578 87.29H47.8178C47.9378 87.29 48.0178 87.27 48.0578 87.23C48.0978 87.19 48.1178 87.11 48.1178 86.99V86.59H48.9978V87.12C48.9978 87.7067 48.6878 88 48.0678 88H47.1078C46.4878 88 46.1778 87.7067 46.1778 87.12V84.01C46.1778 83.4167 46.4878 83.12 47.1078 83.12ZM47.0578 85.18H48.1378V84.12C48.1378 84.0067 48.1178 83.93 48.0778 83.89C48.0444 83.85 47.9678 83.83 47.8478 83.83H47.3578C47.2378 83.83 47.1578 83.85 47.1178 83.89C47.0778 83.93 47.0578 84.0067 47.0578 84.12V85.18ZM49.7813 82.19V81.3H50.7213V82.19H49.7813ZM50.7013 88H49.8013V83.12H50.7013V88ZM53.3986 83.12H54.2986V88.5C54.2986 89.0867 53.9853 89.38 53.3586 89.38H51.6886V88.67H53.0986C53.2186 88.67 53.2986 88.65 53.3386 88.61C53.3786 88.57 53.3986 88.4933 53.3986 88.38V87.55C53.3119 87.81 53.1053 87.94 52.7786 87.94H52.4186C51.8186 87.94 51.5186 87.6433 51.5186 87.05V84.01C51.5186 83.4167 51.8186 83.12 52.4186 83.12H52.7786C53.1053 83.12 53.3119 83.25 53.3986 83.51V83.12ZM52.7186 87.21H53.0686C53.1886 87.21 53.2719 87.1833 53.3186 87.13C53.3719 87.0767 53.3986 86.9867 53.3986 86.86V84.2C53.3986 84.0733 53.3719 83.9833 53.3186 83.93C53.2719 83.8767 53.1886 83.85 53.0686 83.85H52.7186C52.5986 83.85 52.5186 83.87 52.4786 83.91C52.4386 83.9433 52.4186 84.02 52.4186 84.14V86.92C52.4186 87.0333 52.4386 87.11 52.4786 87.15C52.5186 87.19 52.5986 87.21 52.7186 87.21ZM56.7021 83.12H57.0521C57.6588 83.12 57.9621 83.4167 57.9621 84.01V88H57.0621V84.14C57.0621 84.02 57.0421 83.9433 57.0021 83.91C56.9621 83.87 56.8821 83.85 56.7621 83.85H56.4121C56.2921 83.85 56.2055 83.8767 56.1521 83.93C56.1055 83.9833 56.0821 84.0733 56.0821 84.2V88H55.1821V81.31H56.0821V83.51C56.1688 83.25 56.3755 83.12 56.7021 83.12ZM60.4845 83.85H59.8145V86.94C59.8145 87.06 59.8311 87.14 59.8645 87.18C59.9045 87.2133 59.9845 87.23 60.1045 87.23H60.4845V88H59.8445C59.2178 88 58.9045 87.7067 58.9045 87.12V83.85H58.4445V83.12H58.9045V82.29H59.8145V83.12H60.4845V83.85ZM63.4573 87.27H65.2673V88H62.5473V81.74H65.1973V82.47H63.4573V84.4H64.8973V85.13H63.4573V87.27ZM67.615 85.5L68.835 88H67.885L67.155 86.31L66.445 88H65.505L66.705 85.51L65.575 83.12H66.535L67.165 84.72L67.785 83.12H68.725L67.615 85.5ZM70.833 83.12H71.183C71.7897 83.12 72.093 83.4167 72.093 84.01V87.12C72.093 87.7067 71.7897 88 71.183 88H70.833C70.5063 88 70.2997 87.87 70.213 87.61V89.38H69.313V83.12H70.213V83.51C70.2997 83.25 70.5063 83.12 70.833 83.12ZM71.193 86.98V84.14C71.193 84.02 71.173 83.9433 71.133 83.91C71.093 83.87 71.013 83.85 70.893 83.85H70.543C70.423 83.85 70.3363 83.8767 70.283 83.93C70.2363 83.9833 70.213 84.0733 70.213 84.2V86.92C70.213 87.0467 70.2363 87.1367 70.283 87.19C70.3363 87.2433 70.423 87.27 70.543 87.27H70.893C71.013 87.27 71.093 87.2533 71.133 87.22C71.173 87.18 71.193 87.1 71.193 86.98ZM74.6065 83.11H74.8065V83.89H74.4465C74.0265 83.89 73.8165 84.1367 73.8165 84.63V88H72.9165V83.12H73.8165V83.72C73.8698 83.5467 73.9632 83.4033 74.0965 83.29C74.2365 83.17 74.4065 83.11 74.6065 83.11ZM76.2093 83.12H77.1893C77.816 83.12 78.1293 83.4167 78.1293 84.01V85.84H76.1593V87C76.1593 87.1133 76.1793 87.19 76.2193 87.23C76.2593 87.27 76.3393 87.29 76.4593 87.29H76.9193C77.0393 87.29 77.1193 87.27 77.1593 87.23C77.1993 87.19 77.2193 87.11 77.2193 86.99V86.59H78.0993V87.12C78.0993 87.7067 77.7893 88 77.1693 88H76.2093C75.5893 88 75.2793 87.7067 75.2793 87.12V84.01C75.2793 83.4167 75.5893 83.12 76.2093 83.12ZM76.1593 85.18H77.2393V84.12C77.2393 84.0067 77.2193 83.93 77.1793 83.89C77.146 83.85 77.0693 83.83 76.9493 83.83H76.4593C76.3393 83.83 76.2593 83.85 76.2193 83.89C76.1793 83.93 76.1593 84.0067 76.1593 84.12V85.18ZM80.5328 87.02V86.21C80.5328 86.09 80.5128 86.0133 80.4728 85.98C80.4328 85.94 80.3528 85.92 80.2328 85.92H79.7228C79.1028 85.92 78.7928 85.6267 78.7928 85.04V84.01C78.7928 83.4167 79.1028 83.12 79.7228 83.12H80.4528C81.0795 83.12 81.3928 83.4167 81.3928 84.01V84.48H80.5128V84.1C80.5128 83.98 80.4928 83.9033 80.4528 83.87C80.4128 83.83 80.3328 83.81 80.2128 83.81H79.9728C79.8528 83.81 79.7728 83.83 79.7328 83.87C79.6928 83.9033 79.6728 83.98 79.6728 84.1V84.94C79.6728 85.06 79.6928 85.14 79.7328 85.18C79.7728 85.2133 79.8528 85.23 79.9728 85.23H80.4928C81.1062 85.23 81.4128 85.5267 81.4128 86.12V87.12C81.4128 87.7067 81.1028 88 80.4828 88H79.7428C79.1228 88 78.8128 87.7067 78.8128 87.12V86.64H79.6928V87.02C79.6928 87.14 79.7128 87.22 79.7528 87.26C79.7928 87.2933 79.8728 87.31 79.9928 87.31H80.2328C80.3528 87.31 80.4328 87.2933 80.4728 87.26C80.5128 87.22 80.5328 87.14 80.5328 87.02ZM83.8141 87.02V86.21C83.8141 86.09 83.7941 86.0133 83.7541 85.98C83.7141 85.94 83.6341 85.92 83.5141 85.92H83.0041C82.3841 85.92 82.0741 85.6267 82.0741 85.04V84.01C82.0741 83.4167 82.3841 83.12 83.0041 83.12H83.7341C84.3607 83.12 84.6741 83.4167 84.6741 84.01V84.48H83.7941V84.1C83.7941 83.98 83.7741 83.9033 83.7341 83.87C83.6941 83.83 83.6141 83.81 83.4941 83.81H83.2541C83.1341 83.81 83.0541 83.83 83.0141 83.87C82.9741 83.9033 82.9541 83.98 82.9541 84.1V84.94C82.9541 85.06 82.9741 85.14 83.0141 85.18C83.0541 85.2133 83.1341 85.23 83.2541 85.23H83.7741C84.3874 85.23 84.6941 85.5267 84.6941 86.12V87.12C84.6941 87.7067 84.3841 88 83.7641 88H83.0241C82.4041 88 82.0941 87.7067 82.0941 87.12V86.64H82.9741V87.02C82.9741 87.14 82.9941 87.22 83.0341 87.26C83.0741 87.2933 83.1541 87.31 83.2741 87.31H83.5141C83.6341 87.31 83.7141 87.2933 83.7541 87.26C83.7941 87.22 83.8141 87.14 83.8141 87.02Z" fill="white"/>
</svg>
